  0
SECTION
  2
HEADER
  9
$ACADVER
  1
AC1014
  9
$HANDSEED
  5
FFFF
  9
$MEASUREMENT
 70
     1
  0
ENDSEC
  0
SECTION
  2
TABLES
  0
TABLE
  2
VPORT
  5
8
330
0
100
AcDbSymbolTable
 70
     4
  0
VPORT
  5
2E
330
8
100
AcDbSymbolTableRecord
100
AcDbViewportTableRecord
  2
*ACTIVE
 70
     0
 10
0.0
 20
0.0
 11
1.0
 21
1.0
 12
210.0
 22
148.5
 13
0.0
 23
0.0
 14
10.0
 24
10.0
 15
10.0
 25
10.0
 16
0.0
 26
0.0
 36
1.0
 17
0.0
 27
0.0
 37
0.0
 40
341.0
 41
1.24
 42
50.0
 43
0.0
 44
0.0
 50
0.0
 51
0.0
 71
     0
 72
   100
 73
     1
 74
     3
 75
     0
 76
     0
 77
     0
 78
     0
  0
ENDTAB
  0
TABLE
  2
LTYPE
  5
5
330
0
100
AcDbSymbolTable
 70
     1
  0
LTYPE
  5
14
330
5
100
AcDbSymbolTableRecord
100
AcDbLinetypeTableRecord
  2
BYBLOCK
 70
     0
  3

 72
    65
 73
     0
 40
0.0
  0
LTYPE
  5
15
330
5
100
AcDbSymbolTableRecord
100
AcDbLinetypeTableRecord
  2
BYLAYER
 70
     0
  3

 72
    65
 73
     0
 40
0.0
  0
LTYPE
  5
16
330
5
100
AcDbSymbolTableRecord
100
AcDbLinetypeTableRecord
  2
CONTINUOUS
 70
     0
  3
Solid line
 72
    65
 73
     0
 40
0.0
  0
ENDTAB
  0
TABLE
  2
LAYER
  5
2
100
AcDbSymbolTable
 70
1
  0
LAYER
  5
50
100
AcDbSymbolTableRecord
100
AcDbLayerTableRecord
  2
0
 70
0
  6
CONTINUOUS
  0
ENDTAB
  0
TABLE
  2
STYLE
  5
3
330
0
100
AcDbSymbolTable
 70
     1
  0
STYLE
  5
11
330
3
100
AcDbSymbolTableRecord
100
AcDbTextStyleTableRecord
  2
STANDARD
 70
     0
 40
0.0
 41
1.0
 50
0.0
 71
     0
 42
2.5
  3
txt
  4

  0
ENDTAB
  0
TABLE
  2
VIEW
  5
6
330
0
100
AcDbSymbolTable
 70
     0
  0
ENDTAB
  0
TABLE
  2
UCS
  5
7
330
0
100
AcDbSymbolTable
 70
     0
  0
ENDTAB
  0
TABLE
  2
APPID
  5
9
330
0
100
AcDbSymbolTable
 70
     2
  0
APPID
  5
12
330
9
100
AcDbSymbolTableRecord
100
AcDbRegAppTableRecord
  2
ACAD
 70
     0
  0
ENDTAB
  0
TABLE
  2
DIMSTYLE
  5
A
330
0
100
AcDbSymbolTable
 70
     1
  0
DIMSTYLE
105
27
330
A
100
AcDbSymbolTableRecord
100
AcDbDimStyleTableRecord
  2
ISO-25
 70
     0
  3

  4

  5

  6

  7

 40
1.0
 41
2.5
 42
0.625
 43
3.75
 44
1.25
 45
0.0
 46
0.0
 47
0.0
 48
0.0
140
2.5
141
2.5
142
0.0
143
0.03937007874016
144
1.0
145
0.0
146
1.0
147
0.625
 71
     0
 72
     0
 73
     0
 74
     0
 75
     0
 76
     0
 77
     1
 78
     8
170
     0
171
     3
172
     1
173
     0
174
     0
175
     0
176
     0
177
     0
178
     0
270
     2
271
     2
272
     2
273
     2
274
     3
340
11
275
     0
280
     0
281
     0
282
     0
283
     0
284
     8
285
     0
286
     0
287
     3
288
     0
  0
ENDTAB
  0
TABLE
  2
BLOCK_RECORD
  5
1
330
0
100
AcDbSymbolTable
 70
     1
  0
BLOCK_RECORD
  5
1F
330
1
100
AcDbSymbolTableRecord
100
AcDbBlockTableRecord
  2
*MODEL_SPACE
  0
BLOCK_RECORD
  5
1B
330
1
100
AcDbSymbolTableRecord
100
AcDbBlockTableRecord
  2
*PAPER_SPACE
  0
ENDTAB
  0
ENDSEC
  0
SECTION
  2
BLOCKS
  0
BLOCK
  5
20
330
1F
100
AcDbEntity
  8
0
100
AcDbBlockBegin
  2
*MODEL_SPACE
 70
     0
 10
0.0
 20
0.0
 30
0.0
  3
*MODEL_SPACE
  1

  0
ENDBLK
  5
21
330
1F
100
AcDbEntity
  8
0
100
AcDbBlockEnd
  0
BLOCK
  5
1C
330
1B
100
AcDbEntity
 67
     1
  8
0
100
AcDbBlockBegin
  2
*PAPER_SPACE
  1

  0
ENDBLK
  5
1D
330
1B
100
AcDbEntity
 67
     1
  8
0
100
AcDbBlockEnd
  0
ENDSEC
  0
SECTION
  2
ENTITIES
  0
SPLINE
  5
100
100
AcDbEntity
  8
0
 62
7
100
AcDbSpline
 70
8
 71
3
 72
8
 73
4
 74
0
 40
0
 40
0
 40
0
 40
0
 40
1
 40
1
 40
1
 40
1
 10
2.072000
 20
4.922000
 30
0.0
 10
2.072000
 20
4.166133
 30
0.0
 10
2.372267
 20
3.441224
 30
0.0
 10
2.906746
 20
2.906746
 30
0.0
  0
SPLINE
  5
101
100
AcDbEntity
  8
0
 62
7
100
AcDbSpline
 70
8
 71
3
 72
8
 73
4
 74
0
 40
0
 40
0
 40
0
 40
0
 40
1
 40
1
 40
1
 40
1
 10
2.906746
 20
2.906746
 30
0.0
 10
3.441224
 20
2.372267
 30
0.0
 10
4.166133
 20
2.072000
 30
0.0
 10
4.922000
 20
2.072000
 30
0.0
  0
SPLINE
  5
102
100
AcDbEntity
  8
0
 62
7
100
AcDbSpline
 70
8
 71
3
 72
8
 73
4
 74
0
 40
0
 40
0
 40
0
 40
0
 40
1
 40
1
 40
1
 40
1
 10
206.422000
 20
2.072000
 30
0.0
 10
207.177867
 20
2.072000
 30
0.0
 10
207.902776
 20
2.372267
 30
0.0
 10
208.437254
 20
2.906746
 30
0.0
  0
SPLINE
  5
103
100
AcDbEntity
  8
0
 62
7
100
AcDbSpline
 70
8
 71
3
 72
8
 73
4
 74
0
 40
0
 40
0
 40
0
 40
0
 40
1
 40
1
 40
1
 40
1
 10
208.437254
 20
2.906746
 30
0.0
 10
208.971733
 20
3.441224
 30
0.0
 10
209.272000
 20
4.166133
 30
0.0
 10
209.272000
 20
4.922000
 30
0.0
  0
LWPOLYLINE
  5
104
100
AcDbEntity
  8
0
 62
7
100
AcDbPolyline
 90
2
 70
0
 10
4.922000
 20
2.072000
 30
0.0
 10
206.422000
 20
2.072000
 30
0.0
  0
SPLINE
  5
105
100
AcDbEntity
  8
0
 62
7
100
AcDbSpline
 70
8
 71
3
 72
8
 73
4
 74
0
 40
0
 40
0
 40
0
 40
0
 40
1
 40
1
 40
1
 40
1
 10
209.272000
 20
107.647000
 30
0.0
 10
209.272000
 20
108.402867
 30
0.0
 10
208.971733
 20
109.127776
 30
0.0
 10
208.437254
 20
109.662254
 30
0.0
  0
SPLINE
  5
106
100
AcDbEntity
  8
0
 62
7
100
AcDbSpline
 70
8
 71
3
 72
8
 73
4
 74
0
 40
0
 40
0
 40
0
 40
0
 40
1
 40
1
 40
1
 40
1
 10
208.437254
 20
109.662254
 30
0.0
 10
207.902776
 20
110.196733
 30
0.0
 10
207.177867
 20
110.497000
 30
0.0
 10
206.422000
 20
110.497000
 30
0.0
  0
LWPOLYLINE
  5
107
100
AcDbEntity
  8
0
 62
7
100
AcDbPolyline
 90
2
 70
0
 10
209.272000
 20
4.922000
 30
0.0
 10
209.272000
 20
107.647000
 30
0.0
  0
SPLINE
  5
108
100
AcDbEntity
  8
0
 62
7
100
AcDbSpline
 70
8
 71
3
 72
8
 73
4
 74
0
 40
0
 40
0
 40
0
 40
0
 40
1
 40
1
 40
1
 40
1
 10
4.922000
 20
110.497000
 30
0.0
 10
4.166133
 20
110.497000
 30
0.0
 10
3.441224
 20
110.196733
 30
0.0
 10
2.906746
 20
109.662254
 30
0.0
  0
SPLINE
  5
109
100
AcDbEntity
  8
0
 62
7
100
AcDbSpline
 70
8
 71
3
 72
8
 73
4
 74
0
 40
0
 40
0
 40
0
 40
0
 40
1
 40
1
 40
1
 40
1
 10
2.906746
 20
109.662254
 30
0.0
 10
2.372267
 20
109.127776
 30
0.0
 10
2.072000
 20
108.402867
 30
0.0
 10
2.072000
 20
107.647000
 30
0.0
  0
LWPOLYLINE
  5
10a
100
AcDbEntity
  8
0
 62
7
100
AcDbPolyline
 90
2
 70
0
 10
206.422000
 20
110.497000
 30
0.0
 10
4.922000
 20
110.497000
 30
0.0
  0
LWPOLYLINE
  5
10b
100
AcDbEntity
  8
0
 62
7
100
AcDbPolyline
 90
2
 70
0
 10
2.072000
 20
107.647000
 30
0.0
 10
2.072000
 20
4.922000
 30
0.0
  0
SPLINE
  5
10c
100
AcDbEntity
  8
0
 62
7
100
AcDbSpline
 70
8
 71
3
 72
8
 73
4
 74
0
 40
0
 40
0
 40
0
 40
0
 40
1
 40
1
 40
1
 40
1
 10
9.922000
 20
15.434500
 30
0.0
 10
9.922000
 20
15.235588
 30
0.0
 10
10.001018
 20
15.044822
 30
0.0
 10
10.141670
 20
14.904170
 30
0.0
  0
SPLINE
  5
10d
100
AcDbEntity
  8
0
 62
7
100
AcDbSpline
 70
8
 71
3
 72
8
 73
4
 74
0
 40
0
 40
0
 40
0
 40
0
 40
1
 40
1
 40
1
 40
1
 10
10.141670
 20
14.904170
 30
0.0
 10
10.282322
 20
14.763518
 30
0.0
 10
10.473088
 20
14.684500
 30
0.0
 10
10.672000
 20
14.684500
 30
0.0
  0
LWPOLYLINE
  5
10e
100
AcDbEntity
  8
0
 62
7
100
AcDbPolyline
 90
2
 70
0
 10
9.922000
 20
91.134500
 30
0.0
 10
9.922000
 20
15.434500
 30
0.0
  0
SPLINE
  5
10f
100
AcDbEntity
  8
0
 62
7
100
AcDbSpline
 70
8
 71
3
 72
8
 73
4
 74
0
 40
0
 40
0
 40
0
 40
0
 40
1
 40
1
 40
1
 40
1
 10
48.272000
 20
14.684500
 30
0.0
 10
48.470912
 20
14.684500
 30
0.0
 10
48.661678
 20
14.763518
 30
0.0
 10
48.802330
 20
14.904170
 30
0.0
  0
SPLINE
  5
110
100
AcDbEntity
  8
0
 62
7
100
AcDbSpline
 70
8
 71
3
 72
8
 73
4
 74
0
 40
0
 40
0
 40
0
 40
0
 40
1
 40
1
 40
1
 40
1
 10
48.802330
 20
14.904170
 30
0.0
 10
48.942982
 20
15.044822
 30
0.0
 10
49.022000
 20
15.235588
 30
0.0
 10
49.022000
 20
15.434500
 30
0.0
  0
LWPOLYLINE
  5
111
100
AcDbEntity
  8
0
 62
7
100
AcDbPolyline
 90
2
 70
0
 10
10.672000
 20
14.684500
 30
0.0
 10
48.272000
 20
14.684500
 30
0.0
  0
SPLINE
  5
112
100
AcDbEntity
  8
0
 62
7
100
AcDbSpline
 70
8
 71
3
 72
8
 73
4
 74
0
 40
0
 40
0
 40
0
 40
0
 40
1
 40
1
 40
1
 40
1
 10
49.022000
 20
32.984500
 30
0.0
 10
49.022000
 20
33.183412
 30
0.0
 10
49.101018
 20
33.374178
 30
0.0
 10
49.241670
 20
33.514830
 30
0.0
  0
SPLINE
  5
113
100
AcDbEntity
  8
0
 62
7
100
AcDbSpline
 70
8
 71
3
 72
8
 73
4
 74
0
 40
0
 40
0
 40
0
 40
0
 40
1
 40
1
 40
1
 40
1
 10
49.241670
 20
33.514830
 30
0.0
 10
49.382322
 20
33.655482
 30
0.0
 10
49.573088
 20
33.734500
 30
0.0
 10
49.772000
 20
33.734500
 30
0.0
  0
LWPOLYLINE
  5
114
100
AcDbEntity
  8
0
 62
7
100
AcDbPolyline
 90
2
 70
0
 10
49.022000
 20
15.434500
 30
0.0
 10
49.022000
 20
32.984500
 30
0.0
  0
SPLINE
  5
115
100
AcDbEntity
  8
0
 62
7
100
AcDbSpline
 70
8
 71
3
 72
8
 73
4
 74
0
 40
0
 40
0
 40
0
 40
0
 40
1
 40
1
 40
1
 40
1
 10
161.572000
 20
33.734500
 30
0.0
 10
161.770912
 20
33.734500
 30
0.0
 10
161.961678
 20
33.655482
 30
0.0
 10
162.102330
 20
33.514830
 30
0.0
  0
SPLINE
  5
116
100
AcDbEntity
  8
0
 62
7
100
AcDbSpline
 70
8
 71
3
 72
8
 73
4
 74
0
 40
0
 40
0
 40
0
 40
0
 40
1
 40
1
 40
1
 40
1
 10
162.102330
 20
33.514830
 30
0.0
 10
162.242982
 20
33.374178
 30
0.0
 10
162.322000
 20
33.183412
 30
0.0
 10
162.322000
 20
32.984500
 30
0.0
  0
LWPOLYLINE
  5
117
100
AcDbEntity
  8
0
 62
7
100
AcDbPolyline
 90
2
 70
0
 10
49.772000
 20
33.734500
 30
0.0
 10
161.572000
 20
33.734500
 30
0.0
  0
SPLINE
  5
118
100
AcDbEntity
  8
0
 62
7
100
AcDbSpline
 70
8
 71
3
 72
8
 73
4
 74
0
 40
0
 40
0
 40
0
 40
0
 40
1
 40
1
 40
1
 40
1
 10
162.322000
 20
15.434500
 30
0.0
 10
162.322000
 20
15.235588
 30
0.0
 10
162.401018
 20
15.044822
 30
0.0
 10
162.541670
 20
14.904170
 30
0.0
  0
SPLINE
  5
119
100
AcDbEntity
  8
0
 62
7
100
AcDbSpline
 70
8
 71
3
 72
8
 73
4
 74
0
 40
0
 40
0
 40
0
 40
0
 40
1
 40
1
 40
1
 40
1
 10
162.541670
 20
14.904170
 30
0.0
 10
162.682322
 20
14.763518
 30
0.0
 10
162.873088
 20
14.684500
 30
0.0
 10
163.072000
 20
14.684500
 30
0.0
  0
LWPOLYLINE
  5
11a
100
AcDbEntity
  8
0
 62
7
100
AcDbPolyline
 90
2
 70
0
 10
162.322000
 20
32.984500
 30
0.0
 10
162.322000
 20
15.434500
 30
0.0
  0
SPLINE
  5
11b
100
AcDbEntity
  8
0
 62
7
100
AcDbSpline
 70
8
 71
3
 72
8
 73
4
 74
0
 40
0
 40
0
 40
0
 40
0
 40
1
 40
1
 40
1
 40
1
 10
200.672000
 20
14.684500
 30
0.0
 10
200.870912
 20
14.684500
 30
0.0
 10
201.061678
 20
14.763518
 30
0.0
 10
201.202330
 20
14.904170
 30
0.0
  0
SPLINE
  5
11c
100
AcDbEntity
  8
0
 62
7
100
AcDbSpline
 70
8
 71
3
 72
8
 73
4
 74
0
 40
0
 40
0
 40
0
 40
0
 40
1
 40
1
 40
1
 40
1
 10
201.202330
 20
14.904170
 30
0.0
 10
201.342982
 20
15.044822
 30
0.0
 10
201.422000
 20
15.235588
 30
0.0
 10
201.422000
 20
15.434500
 30
0.0
  0
LWPOLYLINE
  5
11d
100
AcDbEntity
  8
0
 62
7
100
AcDbPolyline
 90
2
 70
0
 10
163.072000
 20
14.684500
 30
0.0
 10
200.672000
 20
14.684500
 30
0.0
  0
SPLINE
  5
11e
100
AcDbEntity
  8
0
 62
7
100
AcDbSpline
 70
8
 71
3
 72
8
 73
4
 74
0
 40
0
 40
0
 40
0
 40
0
 40
1
 40
1
 40
1
 40
1
 10
201.422000
 20
91.134500
 30
0.0
 10
201.422000
 20
91.333412
 30
0.0
 10
201.342982
 20
91.524178
 30
0.0
 10
201.202330
 20
91.664830
 30
0.0
  0
SPLINE
  5
11f
100
AcDbEntity
  8
0
 62
7
100
AcDbSpline
 70
8
 71
3
 72
8
 73
4
 74
0
 40
0
 40
0
 40
0
 40
0
 40
1
 40
1
 40
1
 40
1
 10
201.202330
 20
91.664830
 30
0.0
 10
201.061678
 20
91.805482
 30
0.0
 10
200.870912
 20
91.884500
 30
0.0
 10
200.672000
 20
91.884500
 30
0.0
  0
LWPOLYLINE
  5
120
100
AcDbEntity
  8
0
 62
7
100
AcDbPolyline
 90
2
 70
0
 10
201.422000
 20
15.434500
 30
0.0
 10
201.422000
 20
91.134500
 30
0.0
  0
SPLINE
  5
121
100
AcDbEntity
  8
0
 62
7
100
AcDbSpline
 70
8
 71
3
 72
8
 73
4
 74
0
 40
0
 40
0
 40
0
 40
0
 40
1
 40
1
 40
1
 40
1
 10
10.672000
 20
91.884500
 30
0.0
 10
10.473088
 20
91.884500
 30
0.0
 10
10.282322
 20
91.805482
 30
0.0
 10
10.141670
 20
91.664830
 30
0.0
  0
SPLINE
  5
122
100
AcDbEntity
  8
0
 62
7
100
AcDbSpline
 70
8
 71
3
 72
8
 73
4
 74
0
 40
0
 40
0
 40
0
 40
0
 40
1
 40
1
 40
1
 40
1
 10
10.141670
 20
91.664830
 30
0.0
 10
10.001018
 20
91.524178
 30
0.0
 10
9.922000
 20
91.333412
 30
0.0
 10
9.922000
 20
91.134500
 30
0.0
  0
SPLINE
  5
123
100
AcDbEntity
  8
0
 62
7
100
AcDbSpline
 70
8
 71
3
 72
8
 73
4
 74
0
 40
0
 40
0
 40
0
 40
0
 40
1
 40
1
 40
1
 40
1
 10
33.202000
 20
103.265750
 30
0.0
 10
32.101347
 20
103.260247
 30
0.0
 10
31.212000
 20
102.366441
 30
0.0
 10
31.212000
 20
101.265775
 30
0.0
  0
SPLINE
  5
124
100
AcDbEntity
  8
0
 62
7
100
AcDbSpline
 70
8
 71
3
 72
8
 73
4
 74
0
 40
0
 40
0
 40
0
 40
0
 40
1
 40
1
 40
1
 40
1
 10
31.212000
 20
101.265775
 30
0.0
 10
31.212000
 20
100.165109
 30
0.0
 10
32.101347
 20
99.271303
 30
0.0
 10
33.202000
 20
99.265800
 30
0.0
  0
LWPOLYLINE
  5
125
100
AcDbEntity
  8
0
 62
7
100
AcDbPolyline
 90
2
 70
0
 10
200.672000
 20
91.884500
 30
0.0
 10
10.672000
 20
91.884500
 30
0.0
  0
SPLINE
  5
126
100
AcDbEntity
  8
0
 62
7
100
AcDbSpline
 70
8
 71
3
 72
8
 73
4
 74
0
 40
0
 40
0
 40
0
 40
0
 40
1
 40
1
 40
1
 40
1
 10
169.672000
 20
99.265750
 30
0.0
 10
170.386531
 20
99.265775
 30
0.0
 10
171.046785
 20
99.646973
 30
0.0
 10
171.404051
 20
100.265775
 30
0.0
  0
SPLINE
  5
127
100
AcDbEntity
  8
0
 62
7
100
AcDbSpline
 70
8
 71
3
 72
8
 73
4
 74
0
 40
0
 40
0
 40
0
 40
0
 40
1
 40
1
 40
1
 40
1
 10
171.404051
 20
100.265775
 30
0.0
 10
171.761316
 20
100.884577
 30
0.0
 10
171.761316
 20
101.646973
 30
0.0
 10
171.404051
 20
102.265775
 30
0.0
  0
SPLINE
  5
128
100
AcDbEntity
  8
0
 62
7
100
AcDbSpline
 70
8
 71
3
 72
8
 73
4
 74
0
 40
0
 40
0
 40
0
 40
0
 40
1
 40
1
 40
1
 40
1
 10
171.404051
 20
102.265775
 30
0.0
 10
171.046785
 20
102.884577
 30
0.0
 10
170.386531
 20
103.265775
 30
0.0
 10
169.672000
 20
103.265775
 30
0.0
  0
LWPOLYLINE
  5
129
100
AcDbEntity
  8
0
 62
7
100
AcDbPolyline
 90
2
 70
0
 10
33.202000
 20
99.265800
 30
0.0
 10
169.672000
 20
99.265750
 30
0.0
  0
LWPOLYLINE
  5
12a
100
AcDbEntity
  8
0
 62
7
100
AcDbPolyline
 90
2
 70
0
 10
169.672000
 20
103.265775
 30
0.0
 10
33.202000
 20
103.265750
 30
0.0
  0
SPLINE
  5
12b
100
AcDbEntity
  8
0
 62
7
100
AcDbSpline
 70
8
 71
3
 72
8
 73
4
 74
0
 40
0
 40
0
 40
0
 40
0
 40
1
 40
1
 40
1
 40
1
 10
52.784500
 20
10.672000
 30
0.0
 10
52.784500
 20
10.473088
 30
0.0
 10
52.863518
 20
10.282322
 30
0.0
 10
53.004170
 20
10.141670
 30
0.0
  0
SPLINE
  5
12c
100
AcDbEntity
  8
0
 62
7
100
AcDbSpline
 70
8
 71
3
 72
8
 73
4
 74
0
 40
0
 40
0
 40
0
 40
0
 40
1
 40
1
 40
1
 40
1
 10
53.004170
 20
10.141670
 30
0.0
 10
53.144822
 20
10.001018
 30
0.0
 10
53.335588
 20
9.922000
 30
0.0
 10
53.534500
 20
9.922000
 30
0.0
  0
LWPOLYLINE
  5
12d
100
AcDbEntity
  8
0
 62
7
100
AcDbPolyline
 90
2
 70
0
 10
52.784500
 20
29.222000
 30
0.0
 10
52.784500
 20
10.672000
 30
0.0
  0
SPLINE
  5
12e
100
AcDbEntity
  8
0
 62
7
100
AcDbSpline
 70
8
 71
3
 72
8
 73
4
 74
0
 40
0
 40
0
 40
0
 40
0
 40
1
 40
1
 40
1
 40
1
 10
157.809500
 20
9.922000
 30
0.0
 10
158.008412
 20
9.922000
 30
0.0
 10
158.199178
 20
10.001018
 30
0.0
 10
158.339830
 20
10.141670
 30
0.0
  0
SPLINE
  5
12f
100
AcDbEntity
  8
0
 62
7
100
AcDbSpline
 70
8
 71
3
 72
8
 73
4
 74
0
 40
0
 40
0
 40
0
 40
0
 40
1
 40
1
 40
1
 40
1
 10
158.339830
 20
10.141670
 30
0.0
 10
158.480482
 20
10.282322
 30
0.0
 10
158.559500
 20
10.473088
 30
0.0
 10
158.559500
 20
10.672000
 30
0.0
  0
LWPOLYLINE
  5
130
100
AcDbEntity
  8
0
 62
7
100
AcDbPolyline
 90
2
 70
0
 10
53.534500
 20
9.922000
 30
0.0
 10
157.809500
 20
9.922000
 30
0.0
  0
SPLINE
  5
131
100
AcDbEntity
  8
0
 62
7
100
AcDbSpline
 70
8
 71
3
 72
8
 73
4
 74
0
 40
0
 40
0
 40
0
 40
0
 40
1
 40
1
 40
1
 40
1
 10
158.559500
 20
29.222000
 30
0.0
 10
158.559500
 20
29.420912
 30
0.0
 10
158.480482
 20
29.611678
 30
0.0
 10
158.339830
 20
29.752330
 30
0.0
  0
SPLINE
  5
132
100
AcDbEntity
  8
0
 62
7
100
AcDbSpline
 70
8
 71
3
 72
8
 73
4
 74
0
 40
0
 40
0
 40
0
 40
0
 40
1
 40
1
 40
1
 40
1
 10
158.339830
 20
29.752330
 30
0.0
 10
158.199178
 20
29.892982
 30
0.0
 10
158.008412
 20
29.972000
 30
0.0
 10
157.809500
 20
29.972000
 30
0.0
  0
LWPOLYLINE
  5
133
100
AcDbEntity
  8
0
 62
7
100
AcDbPolyline
 90
2
 70
0
 10
158.559500
 20
10.672000
 30
0.0
 10
158.559500
 20
29.222000
 30
0.0
  0
SPLINE
  5
134
100
AcDbEntity
  8
0
 62
7
100
AcDbSpline
 70
8
 71
3
 72
8
 73
4
 74
0
 40
0
 40
0
 40
0
 40
0
 40
1
 40
1
 40
1
 40
1
 10
53.534500
 20
29.972000
 30
0.0
 10
53.335588
 20
29.972000
 30
0.0
 10
53.144822
 20
29.892982
 30
0.0
 10
53.004170
 20
29.752330
 30
0.0
  0
SPLINE
  5
135
100
AcDbEntity
  8
0
 62
7
100
AcDbSpline
 70
8
 71
3
 72
8
 73
4
 74
0
 40
0
 40
0
 40
0
 40
0
 40
1
 40
1
 40
1
 40
1
 10
53.004170
 20
29.752330
 30
0.0
 10
52.863518
 20
29.611678
 30
0.0
 10
52.784500
 20
29.420912
 30
0.0
 10
52.784500
 20
29.222000
 30
0.0
  0
SPLINE
  5
136
100
AcDbEntity
  8
0
 62
1
100
AcDbSpline
 70
8
 71
3
 72
8
 73
4
 74
0
 40
0
 40
0
 40
0
 40
0
 40
1
 40
1
 40
1
 40
1
 10
23.701999
 20
101.265751
 30
0.0
 10
23.701999
 20
102.923354
 30
0.0
 10
23.043519
 20
104.513066
 30
0.0
 10
21.871416
 20
105.685168
 30
0.0
  0
SPLINE
  5
137
100
AcDbEntity
  8
0
 62
1
100
AcDbSpline
 70
8
 71
3
 72
8
 73
4
 74
0
 40
0
 40
0
 40
0
 40
0
 40
1
 40
1
 40
1
 40
1
 10
21.871416
 20
105.685168
 30
0.0
 10
20.699314
 20
106.857271
 30
0.0
 10
19.109602
 20
107.515751
 30
0.0
 10
17.451999
 20
107.515751
 30
0.0
  0
SPLINE
  5
138
100
AcDbEntity
  8
0
 62
1
100
AcDbSpline
 70
8
 71
3
 72
8
 73
4
 74
0
 40
0
 40
0
 40
0
 40
0
 40
1
 40
1
 40
1
 40
1
 10
17.451999
 20
107.515751
 30
0.0
 10
15.794396
 20
107.515751
 30
0.0
 10
14.204684
 20
106.857271
 30
0.0
 10
13.032582
 20
105.685168
 30
0.0
  0
SPLINE
  5
139
100
AcDbEntity
  8
0
 62
1
100
AcDbSpline
 70
8
 71
3
 72
8
 73
4
 74
0
 40
0
 40
0
 40
0
 40
0
 40
1
 40
1
 40
1
 40
1
 10
13.032582
 20
105.685168
 30
0.0
 10
11.860479
 20
104.513066
 30
0.0
 10
11.201999
 20
102.923354
 30
0.0
 10
11.201999
 20
101.265751
 30
0.0
  0
SPLINE
  5
13a
100
AcDbEntity
  8
0
 62
1
100
AcDbSpline
 70
8
 71
3
 72
8
 73
4
 74
0
 40
0
 40
0
 40
0
 40
0
 40
1
 40
1
 40
1
 40
1
 10
11.201999
 20
101.265751
 30
0.0
 10
11.201999
 20
99.608148
 30
0.0
 10
11.860479
 20
98.018436
 30
0.0
 10
13.032582
 20
96.846334
 30
0.0
  0
SPLINE
  5
13b
100
AcDbEntity
  8
0
 62
1
100
AcDbSpline
 70
8
 71
3
 72
8
 73
4
 74
0
 40
0
 40
0
 40
0
 40
0
 40
1
 40
1
 40
1
 40
1
 10
13.032582
 20
96.846334
 30
0.0
 10
14.204684
 20
95.674231
 30
0.0
 10
15.794396
 20
95.015751
 30
0.0
 10
17.451999
 20
95.015751
 30
0.0
  0
SPLINE
  5
13c
100
AcDbEntity
  8
0
 62
1
100
AcDbSpline
 70
8
 71
3
 72
8
 73
4
 74
0
 40
0
 40
0
 40
0
 40
0
 40
1
 40
1
 40
1
 40
1
 10
17.451999
 20
95.015751
 30
0.0
 10
19.109602
 20
95.015751
 30
0.0
 10
20.699314
 20
95.674231
 30
0.0
 10
21.871416
 20
96.846334
 30
0.0
  0
SPLINE
  5
13d
100
AcDbEntity
  8
0
 62
1
100
AcDbSpline
 70
8
 71
3
 72
8
 73
4
 74
0
 40
0
 40
0
 40
0
 40
0
 40
1
 40
1
 40
1
 40
1
 10
21.871416
 20
96.846334
 30
0.0
 10
23.043519
 20
98.018436
 30
0.0
 10
23.701999
 20
99.608148
 30
0.0
 10
23.701999
 20
101.265751
 30
0.0
  0
LWPOLYLINE
  5
13e
100
AcDbEntity
  8
0
 62
7
100
AcDbPolyline
 90
2
 70
0
 10
157.809500
 20
29.972000
 30
0.0
 10
53.534500
 20
29.972000
 30
0.0
  0
LWPOLYLINE
  5
13f
100
AcDbEntity
  8
0
 62
1
100
AcDbPolyline
 90
1
 70
1
 10
23.701999
 20
101.265751
 30
0.0
  0
LWPOLYLINE
  5
140
100
AcDbEntity
  8
0
 62
7
100
AcDbPolyline
 90
16
 70
1
 10
182.922000
 20
98.765750
 30
0.0
 10
184.422000
 20
98.765750
 30
0.0
 10
184.822000
 20
99.547000
 30
0.0
 10
184.422000
 20
100.328250
 30
0.0
 10
184.422000
 20
101.265750
 30
0.0
 10
182.859500
 20
103.765750
 30
0.0
 10
180.984500
 20
103.765750
 30
0.0
 10
179.422000
 20
101.265750
 30
0.0
 10
179.422000
 20
100.328250
 30
0.0
 10
179.022000
 20
99.547000
 30
0.0
 10
179.422000
 20
98.765750
 30
0.0
 10
180.922000
 20
98.765750
 30
0.0
 10
180.522000
 20
99.547000
 30
0.0
 10
180.922000
 20
100.328250
 30
0.0
 10
182.922000
 20
100.328250
 30
0.0
 10
183.322000
 20
99.547000
 30
0.0
  0
LWPOLYLINE
  5
141
100
AcDbEntity
  8
0
 62
7
100
AcDbPolyline
 90
16
 70
1
 10
195.922000
 20
98.765750
 30
0.0
 10
194.422000
 20
98.765750
 30
0.0
 10
194.022000
 20
99.547000
 30
0.0
 10
194.422000
 20
100.328250
 30
0.0
 10
194.422000
 20
101.265750
 30
0.0
 10
195.984500
 20
103.765750
 30
0.0
 10
197.859500
 20
103.765750
 30
0.0
 10
199.422000
 20
101.265750
 30
0.0
 10
199.422000
 20
100.328250
 30
0.0
 10
199.822000
 20
99.547000
 30
0.0
 10
199.422000
 20
98.765750
 30
0.0
 10
197.922000
 20
98.765750
 30
0.0
 10
198.322000
 20
99.547000
 30
0.0
 10
197.922000
 20
100.328250
 30
0.0
 10
195.922000
 20
100.328250
 30
0.0
 10
195.522000
 20
99.547000
 30
0.0
  0
LWPOLYLINE
  5
142
100
AcDbEntity
  8
0
 62
7
100
AcDbPolyline
 90
16
 70
1
 10
188.422000
 20
98.765750
 30
0.0
 10
186.922000
 20
98.765750
 30
0.0
 10
186.522000
 20
99.547000
 30
0.0
 10
186.922000
 20
100.328250
 30
0.0
 10
186.922000
 20
101.265750
 30
0.0
 10
188.484500
 20
103.765750
 30
0.0
 10
190.359500
 20
103.765750
 30
0.0
 10
191.922000
 20
101.265750
 30
0.0
 10
191.922000
 20
100.328250
 30
0.0
 10
192.322000
 20
99.547000
 30
0.0
 10
191.922000
 20
98.765750
 30
0.0
 10
190.422000
 20
98.765750
 30
0.0
 10
190.822000
 20
99.547000
 30
0.0
 10
190.422000
 20
100.328250
 30
0.0
 10
188.422000
 20
100.328250
 30
0.0
 10
188.022000
 20
99.547000
 30
0.0
  0
SPLINE
  5
143
100
AcDbEntity
  8
0
 62
7
100
AcDbSpline
 70
8
 71
3
 72
8
 73
4
 74
0
 40
0
 40
0
 40
0
 40
0
 40
1
 40
1
 40
1
 40
1
 10
196.122000
 20
82.884000
 30
0.0
 10
196.731998
 20
82.884000
 30
0.0
 10
197.317012
 20
82.641679
 30
0.0
 10
197.748346
 20
82.210346
 30
0.0
  0
SPLINE
  5
144
100
AcDbEntity
  8
0
 62
7
100
AcDbSpline
 70
8
 71
3
 72
8
 73
4
 74
0
 40
0
 40
0
 40
0
 40
0
 40
1
 40
1
 40
1
 40
1
 10
197.748346
 20
82.210346
 30
0.0
 10
198.179679
 20
81.779012
 30
0.0
 10
198.422000
 20
81.193998
 30
0.0
 10
198.422000
 20
80.584000
 30
0.0
  0
LWPOLYLINE
  5
145
100
AcDbEntity
  8
0
 62
7
100
AcDbPolyline
 90
2
 70
0
 10
101.572000
 20
82.884000
 30
0.0
 10
196.122000
 20
82.884000
 30
0.0
  0
LWPOLYLINE
  5
146
100
AcDbEntity
  8
0
 62
7
100
AcDbPolyline
 90
6
 70
0
 10
198.422000
 20
80.584000
 30
0.0
 10
198.422000
 20
29.171500
 30
0.0
 10
195.422000
 20
29.171500
 30
0.0
 10
195.422000
 20
79.884000
 30
0.0
 10
101.572000
 20
79.884000
 30
0.0
 10
101.572000
 20
82.884000
 30
0.0
  0
SPLINE
  5
147
100
AcDbEntity
  8
0
 62
7
100
AcDbSpline
 70
8
 71
3
 72
8
 73
4
 74
0
 40
0
 40
0
 40
0
 40
0
 40
1
 40
1
 40
1
 40
1
 10
15.222000
 20
88.884000
 30
0.0
 10
14.612002
 20
88.884000
 30
0.0
 10
14.026988
 20
88.641679
 30
0.0
 10
13.595654
 20
88.210346
 30
0.0
  0
SPLINE
  5
148
100
AcDbEntity
  8
0
 62
7
100
AcDbSpline
 70
8
 71
3
 72
8
 73
4
 74
0
 40
0
 40
0
 40
0
 40
0
 40
1
 40
1
 40
1
 40
1
 10
13.595654
 20
88.210346
 30
0.0
 10
13.164321
 20
87.779012
 30
0.0
 10
12.922000
 20
87.193998
 30
0.0
 10
12.922000
 20
86.584000
 30
0.0
  0
LWPOLYLINE
  5
149
100
AcDbEntity
  8
0
 62
7
100
AcDbPolyline
 90
2
 70
0
 10
109.772000
 20
88.884000
 30
0.0
 10
15.222000
 20
88.884000
 30
0.0
  0
LWPOLYLINE
  5
14a
100
AcDbEntity
  8
0
 62
7
100
AcDbPolyline
 90
6
 70
0
 10
12.922000
 20
86.584000
 30
0.0
 10
12.922000
 20
35.171500
 30
0.0
 10
15.922000
 20
35.171500
 30
0.0
 10
15.922000
 20
85.884000
 30
0.0
 10
109.772000
 20
85.884000
 30
0.0
 10
109.772000
 20
88.884000
 30
0.0
  0
SPLINE
  5
14b
100
AcDbEntity
  8
0
 62
7
100
AcDbSpline
 70
8
 71
3
 72
8
 73
4
 74
0
 40
0
 40
0
 40
0
 40
0
 40
1
 40
1
 40
1
 40
1
 10
21.222000
 20
76.884000
 30
0.0
 10
19.951750
 20
76.884000
 30
0.0
 10
18.922000
 20
75.854255
 30
0.0
 10
18.922000
 20
74.584000
 30
0.0
  0
LWPOLYLINE
  5
14c
100
AcDbEntity
  8
0
 62
7
100
AcDbPolyline
 90
2
 70
0
 10
115.671588
 20
76.884000
 30
0.0
 10
21.222000
 20
76.884000
 30
0.0
  0
LWPOLYLINE
  5
14d
100
AcDbEntity
  8
0
 62
7
100
AcDbPolyline
 90
6
 70
0
 10
18.922000
 20
74.584000
 30
0.0
 10
18.922000
 20
23.271445
 30
0.0
 10
21.922000
 20
23.271445
 30
0.0
 10
21.922000
 20
73.884000
 30
0.0
 10
115.671588
 20
73.984445
 30
0.0
 10
115.671588
 20
76.884000
 30
0.0
  0
SPLINE
  5
14e
100
AcDbEntity
  8
0
 62
7
100
AcDbSpline
 70
8
 71
3
 72
8
 73
4
 74
0
 40
0
 40
0
 40
0
 40
0
 40
1
 40
1
 40
1
 40
1
 10
190.121590
 20
70.884000
 30
0.0
 10
191.391840
 20
70.884000
 30
0.0
 10
192.421590
 20
69.854255
 30
0.0
 10
192.421590
 20
68.584000
 30
0.0
  0
LWPOLYLINE
  5
14f
100
AcDbEntity
  8
0
 62
7
100
AcDbPolyline
 90
2
 70
0
 10
95.672000
 20
70.884000
 30
0.0
 10
190.121590
 20
70.884000
 30
0.0
  0
LWPOLYLINE
  5
150
100
AcDbEntity
  8
0
 62
7
100
AcDbPolyline
 90
6
 70
0
 10
192.421590
 20
68.584000
 30
0.0
 10
192.421590
 20
17.271445
 30
0.0
 10
189.421590
 20
17.271445
 30
0.0
 10
189.421590
 20
67.884000
 30
0.0
 10
95.672000
 20
67.984445
 30
0.0
 10
95.672000
 20
70.884000
 30
0.0
  0
ENDSEC
  0
SECTION
  2
OBJECTS
  0
DICTIONARY
  5
C
330
0
100
AcDbDictionary
  3
ACAD_GROUP
350
D
  3
ACAD_MLINESTYLE
350
17
  0
DICTIONARY
  5
D
330
C
100
AcDbDictionary
  0
DICTIONARY
  5
1A
330
C
100
AcDbDictionary
  0
DICTIONARY
  5
17
330
C
100
AcDbDictionary
  3
STANDARD
350
18
  0
DICTIONARY
  5
19
330
C
100
AcDbDictionary
  0
ENDSEC
  0
EOF
