  0
SECTION
  2
HEADER
  9
$ACADVER
  1
AC1014
  9
$HANDSEED
  5
FFFF
  9
$MEASUREMENT
 70
     1
  0
ENDSEC
  0
SECTION
  2
TABLES
  0
TABLE
  2
VPORT
  5
8
330
0
100
AcDbSymbolTable
 70
     4
  0
VPORT
  5
2E
330
8
100
AcDbSymbolTableRecord
100
AcDbViewportTableRecord
  2
*ACTIVE
 70
     0
 10
0.0
 20
0.0
 11
1.0
 21
1.0
 12
210.0
 22
148.5
 13
0.0
 23
0.0
 14
10.0
 24
10.0
 15
10.0
 25
10.0
 16
0.0
 26
0.0
 36
1.0
 17
0.0
 27
0.0
 37
0.0
 40
341.0
 41
1.24
 42
50.0
 43
0.0
 44
0.0
 50
0.0
 51
0.0
 71
     0
 72
   100
 73
     1
 74
     3
 75
     0
 76
     0
 77
     0
 78
     0
  0
ENDTAB
  0
TABLE
  2
LTYPE
  5
5
330
0
100
AcDbSymbolTable
 70
     1
  0
LTYPE
  5
14
330
5
100
AcDbSymbolTableRecord
100
AcDbLinetypeTableRecord
  2
BYBLOCK
 70
     0
  3

 72
    65
 73
     0
 40
0.0
  0
LTYPE
  5
15
330
5
100
AcDbSymbolTableRecord
100
AcDbLinetypeTableRecord
  2
BYLAYER
 70
     0
  3

 72
    65
 73
     0
 40
0.0
  0
LTYPE
  5
16
330
5
100
AcDbSymbolTableRecord
100
AcDbLinetypeTableRecord
  2
CONTINUOUS
 70
     0
  3
Solid line
 72
    65
 73
     0
 40
0.0
  0
ENDTAB
  0
TABLE
  2
LAYER
  5
2
100
AcDbSymbolTable
 70
1
  0
LAYER
  5
50
100
AcDbSymbolTableRecord
100
AcDbLayerTableRecord
  2
0
 70
0
  6
CONTINUOUS
  0
ENDTAB
  0
TABLE
  2
STYLE
  5
3
330
0
100
AcDbSymbolTable
 70
     1
  0
STYLE
  5
11
330
3
100
AcDbSymbolTableRecord
100
AcDbTextStyleTableRecord
  2
STANDARD
 70
     0
 40
0.0
 41
1.0
 50
0.0
 71
     0
 42
2.5
  3
txt
  4

  0
ENDTAB
  0
TABLE
  2
VIEW
  5
6
330
0
100
AcDbSymbolTable
 70
     0
  0
ENDTAB
  0
TABLE
  2
UCS
  5
7
330
0
100
AcDbSymbolTable
 70
     0
  0
ENDTAB
  0
TABLE
  2
APPID
  5
9
330
0
100
AcDbSymbolTable
 70
     2
  0
APPID
  5
12
330
9
100
AcDbSymbolTableRecord
100
AcDbRegAppTableRecord
  2
ACAD
 70
     0
  0
ENDTAB
  0
TABLE
  2
DIMSTYLE
  5
A
330
0
100
AcDbSymbolTable
 70
     1
  0
DIMSTYLE
105
27
330
A
100
AcDbSymbolTableRecord
100
AcDbDimStyleTableRecord
  2
ISO-25
 70
     0
  3

  4

  5

  6

  7

 40
1.0
 41
2.5
 42
0.625
 43
3.75
 44
1.25
 45
0.0
 46
0.0
 47
0.0
 48
0.0
140
2.5
141
2.5
142
0.0
143
0.03937007874016
144
1.0
145
0.0
146
1.0
147
0.625
 71
     0
 72
     0
 73
     0
 74
     0
 75
     0
 76
     0
 77
     1
 78
     8
170
     0
171
     3
172
     1
173
     0
174
     0
175
     0
176
     0
177
     0
178
     0
270
     2
271
     2
272
     2
273
     2
274
     3
340
11
275
     0
280
     0
281
     0
282
     0
283
     0
284
     8
285
     0
286
     0
287
     3
288
     0
  0
ENDTAB
  0
TABLE
  2
BLOCK_RECORD
  5
1
330
0
100
AcDbSymbolTable
 70
     1
  0
BLOCK_RECORD
  5
1F
330
1
100
AcDbSymbolTableRecord
100
AcDbBlockTableRecord
  2
*MODEL_SPACE
  0
BLOCK_RECORD
  5
1B
330
1
100
AcDbSymbolTableRecord
100
AcDbBlockTableRecord
  2
*PAPER_SPACE
  0
ENDTAB
  0
ENDSEC
  0
SECTION
  2
BLOCKS
  0
BLOCK
  5
20
330
1F
100
AcDbEntity
  8
0
100
AcDbBlockBegin
  2
*MODEL_SPACE
 70
     0
 10
0.0
 20
0.0
 30
0.0
  3
*MODEL_SPACE
  1

  0
ENDBLK
  5
21
330
1F
100
AcDbEntity
  8
0
100
AcDbBlockEnd
  0
BLOCK
  5
1C
330
1B
100
AcDbEntity
 67
     1
  8
0
100
AcDbBlockBegin
  2
*PAPER_SPACE
  1

  0
ENDBLK
  5
1D
330
1B
100
AcDbEntity
 67
     1
  8
0
100
AcDbBlockEnd
  0
ENDSEC
  0
SECTION
  2
ENTITIES
  0
LWPOLYLINE
  5
100
100
AcDbEntity
  8
0
 62
7
100
AcDbPolyline
 90
16
 70
1
 10
4.600004
 20
21.076210
 30
0.0
 10
6.100002
 20
21.076210
 30
0.0
 10
6.500006
 20
21.857459
 30
0.0
 10
6.100002
 20
22.638708
 30
0.0
 10
6.100002
 20
23.576207
 30
0.0
 10
4.537504
 20
26.076205
 30
0.0
 10
2.662508
 20
26.076205
 30
0.0
 10
1.100009
 20
23.576207
 30
0.0
 10
1.100009
 20
22.638708
 30
0.0
 10
0.700009
 20
21.857459
 30
0.0
 10
1.100009
 20
21.076210
 30
0.0
 10
2.600008
 20
21.076210
 30
0.0
 10
2.200008
 20
21.857459
 30
0.0
 10
2.600008
 20
22.638708
 30
0.0
 10
4.600004
 20
22.638708
 30
0.0
 10
5.000003
 20
21.857459
 30
0.0
  0
LWPOLYLINE
  5
101
100
AcDbEntity
  8
0
 62
7
100
AcDbPolyline
 90
16
 70
1
 10
10.100003
 20
21.076210
 30
0.0
 10
8.600004
 20
21.076210
 30
0.0
 10
8.200005
 20
21.857459
 30
0.0
 10
8.600004
 20
22.638708
 30
0.0
 10
8.600004
 20
23.576207
 30
0.0
 10
10.162503
 20
26.076205
 30
0.0
 10
12.037501
 20
26.076205
 30
0.0
 10
13.600000
 20
23.576207
 30
0.0
 10
13.600000
 20
22.638708
 30
0.0
 10
13.999999
 20
21.857459
 30
0.0
 10
13.600000
 20
21.076210
 30
0.0
 10
12.100001
 20
21.076210
 30
0.0
 10
12.500001
 20
21.857459
 30
0.0
 10
12.100001
 20
22.638708
 30
0.0
 10
10.100003
 20
22.638708
 30
0.0
 10
9.700003
 20
21.857459
 30
0.0
  0
LWPOLYLINE
  5
102
100
AcDbEntity
  8
0
 62
7
100
AcDbPolyline
 90
16
 70
1
 10
17.599996
 20
21.076210
 30
0.0
 10
16.099997
 20
21.076210
 30
0.0
 10
15.699998
 20
21.857459
 30
0.0
 10
16.099997
 20
22.638708
 30
0.0
 10
16.099997
 20
23.576207
 30
0.0
 10
17.662496
 20
26.076205
 30
0.0
 10
19.537494
 20
26.076205
 30
0.0
 10
21.099993
 20
23.576207
 30
0.0
 10
21.099993
 20
22.638708
 30
0.0
 10
21.499992
 20
21.857459
 30
0.0
 10
21.099993
 20
21.076210
 30
0.0
 10
19.599994
 20
21.076210
 30
0.0
 10
19.999994
 20
21.857459
 30
0.0
 10
19.599994
 20
22.638708
 30
0.0
 10
17.599996
 20
22.638708
 30
0.0
 10
17.199996
 20
21.857459
 30
0.0
  0
LWPOLYLINE
  5
103
100
AcDbEntity
  8
0
 62
7
100
AcDbPolyline
 90
16
 70
1
 10
4.636897
 20
14.178962
 30
0.0
 10
6.151081
 20
14.178962
 30
0.0
 10
6.554870
 20
14.968097
 30
0.0
 10
6.151081
 20
15.757234
 30
0.0
 10
6.151081
 20
16.704197
 30
0.0
 10
4.573805
 20
19.229430
 30
0.0
 10
2.681078
 20
19.229430
 30
0.0
 10
1.103799
 20
16.704197
 30
0.0
 10
1.103799
 20
15.757234
 30
0.0
 10
0.700009
 20
14.968097
 30
0.0
 10
1.103799
 20
14.178962
 30
0.0
 10
2.617988
 20
14.178962
 30
0.0
 10
2.214198
 20
14.968097
 30
0.0
 10
2.617988
 20
15.757234
 30
0.0
 10
4.636897
 20
15.757234
 30
0.0
 10
5.040679
 20
14.968097
 30
0.0
  0
LWPOLYLINE
  5
104
100
AcDbEntity
  8
0
 62
7
100
AcDbPolyline
 90
16
 70
1
 10
10.188918
 20
14.178959
 30
0.0
 10
8.674731
 20
14.178959
 30
0.0
 10
8.270948
 20
14.968095
 30
0.0
 10
8.674731
 20
15.757232
 30
0.0
 10
8.674731
 20
16.704195
 30
0.0
 10
10.252009
 20
19.229429
 30
0.0
 10
12.144742
 20
19.229429
 30
0.0
 10
13.722019
 20
16.704195
 30
0.0
 10
13.722019
 20
15.757232
 30
0.0
 10
14.125802
 20
14.968095
 30
0.0
 10
13.722019
 20
14.178959
 30
0.0
 10
12.207833
 20
14.178959
 30
0.0
 10
12.611615
 20
14.968095
 30
0.0
 10
12.207833
 20
15.757232
 30
0.0
 10
10.188918
 20
15.757232
 30
0.0
 10
9.785134
 20
14.968095
 30
0.0
  0
LWPOLYLINE
  5
105
100
AcDbEntity
  8
0
 62
7
100
AcDbPolyline
 90
16
 70
1
 10
17.759850
 20
14.178959
 30
0.0
 10
16.245663
 20
14.178959
 30
0.0
 10
15.841881
 20
14.968095
 30
0.0
 10
16.245663
 20
15.757232
 30
0.0
 10
16.245663
 20
16.704195
 30
0.0
 10
17.822942
 20
19.229429
 30
0.0
 10
19.715674
 20
19.229429
 30
0.0
 10
21.292952
 20
16.704195
 30
0.0
 10
21.292952
 20
15.757232
 30
0.0
 10
21.696735
 20
14.968095
 30
0.0
 10
21.292952
 20
14.178959
 30
0.0
 10
19.778766
 20
14.178959
 30
0.0
 10
20.182549
 20
14.968095
 30
0.0
 10
19.778766
 20
15.757232
 30
0.0
 10
17.759850
 20
15.757232
 30
0.0
 10
17.356067
 20
14.968095
 30
0.0
  0
LWPOLYLINE
  5
106
100
AcDbEntity
  8
0
 62
7
100
AcDbPolyline
 90
16
 70
1
 10
4.673433
 20
7.282181
 30
0.0
 10
6.201674
 20
7.282181
 30
0.0
 10
6.609209
 20
8.079130
 30
0.0
 10
6.201674
 20
8.876079
 30
0.0
 10
6.201674
 20
9.832417
 30
0.0
 10
4.609756
 20
12.382653
 30
0.0
 10
2.699458
 20
12.382653
 30
0.0
 10
1.107539
 20
9.832417
 30
0.0
 10
1.107539
 20
8.876079
 30
0.0
 10
0.700009
 20
8.079130
 30
0.0
 10
1.107539
 20
7.282181
 30
0.0
 10
2.635778
 20
7.282181
 30
0.0
 10
2.228248
 20
8.079130
 30
0.0
 10
2.635778
 20
8.876079
 30
0.0
 10
4.673433
 20
8.876079
 30
0.0
 10
5.080963
 20
8.079130
 30
0.0
  0
LWPOLYLINE
  5
107
100
AcDbEntity
  8
0
 62
7
100
AcDbPolyline
 90
16
 70
1
 10
10.276989
 20
7.282181
 30
0.0
 10
8.748747
 20
7.282181
 30
0.0
 10
8.341215
 20
8.079130
 30
0.0
 10
8.748747
 20
8.876079
 30
0.0
 10
8.748747
 20
9.832417
 30
0.0
 10
10.340665
 20
12.382653
 30
0.0
 10
12.250967
 20
12.382653
 30
0.0
 10
13.842884
 20
9.832417
 30
0.0
 10
13.842884
 20
8.876079
 30
0.0
 10
14.250416
 20
8.079130
 30
0.0
 10
13.842884
 20
7.282181
 30
0.0
 10
12.314644
 20
7.282181
 30
0.0
 10
12.722174
 20
8.079130
 30
0.0
 10
12.314644
 20
8.876079
 30
0.0
 10
10.276989
 20
8.876079
 30
0.0
 10
9.869457
 20
8.079130
 30
0.0
  0
LWPOLYLINE
  5
108
100
AcDbEntity
  8
0
 62
7
100
AcDbPolyline
 90
16
 70
1
 10
17.918195
 20
7.282181
 30
0.0
 10
16.389954
 20
7.282181
 30
0.0
 10
15.982422
 20
8.079130
 30
0.0
 10
16.389954
 20
8.876079
 30
0.0
 10
16.389954
 20
9.832417
 30
0.0
 10
17.981872
 20
12.382653
 30
0.0
 10
19.892174
 20
12.382653
 30
0.0
 10
21.484091
 20
9.832417
 30
0.0
 10
21.484091
 20
8.876079
 30
0.0
 10
21.891623
 20
8.079130
 30
0.0
 10
21.484091
 20
7.282181
 30
0.0
 10
19.955850
 20
7.282181
 30
0.0
 10
20.363381
 20
8.079130
 30
0.0
 10
19.955850
 20
8.876079
 30
0.0
 10
17.918195
 20
8.876079
 30
0.0
 10
17.510664
 20
8.079130
 30
0.0
  0
LWPOLYLINE
  5
109
100
AcDbEntity
  8
0
 62
7
100
AcDbPolyline
 90
16
 70
1
 10
27.099985
 20
21.076210
 30
0.0
 10
28.599984
 20
21.076210
 30
0.0
 10
28.999987
 20
21.857459
 30
0.0
 10
28.599984
 20
22.638708
 30
0.0
 10
28.599984
 20
23.576207
 30
0.0
 10
27.037485
 20
26.076205
 30
0.0
 10
25.162489
 20
26.076205
 30
0.0
 10
23.599990
 20
23.576207
 30
0.0
 10
23.599990
 20
22.638708
 30
0.0
 10
23.199991
 20
21.857459
 30
0.0
 10
23.599990
 20
21.076210
 30
0.0
 10
25.099989
 20
21.076210
 30
0.0
 10
24.699989
 20
21.857459
 30
0.0
 10
25.099989
 20
22.638708
 30
0.0
 10
27.099985
 20
22.638708
 30
0.0
 10
27.499985
 20
21.857459
 30
0.0
  0
LWPOLYLINE
  5
10a
100
AcDbEntity
  8
0
 62
7
100
AcDbPolyline
 90
16
 70
1
 10
27.349696
 20
14.178959
 30
0.0
 10
28.863883
 20
14.178959
 30
0.0
 10
29.267669
 20
14.968095
 30
0.0
 10
28.863883
 20
15.757232
 30
0.0
 10
28.863883
 20
16.704195
 30
0.0
 10
27.286605
 20
19.229429
 30
0.0
 10
25.393874
 20
19.229429
 30
0.0
 10
23.816596
 20
16.704195
 30
0.0
 10
23.816596
 20
15.757232
 30
0.0
 10
23.412814
 20
14.968095
 30
0.0
 10
23.816596
 20
14.178959
 30
0.0
 10
25.330783
 20
14.178959
 30
0.0
 10
24.926999
 20
14.968095
 30
0.0
 10
25.330783
 20
15.757232
 30
0.0
 10
27.349696
 20
15.757232
 30
0.0
 10
27.753479
 20
14.968095
 30
0.0
  0
LWPOLYLINE
  5
10b
100
AcDbEntity
  8
0
 62
7
100
AcDbPolyline
 90
16
 70
1
 10
27.597055
 20
7.282181
 30
0.0
 10
29.125296
 20
7.282181
 30
0.0
 10
29.532831
 20
8.079130
 30
0.0
 10
29.125296
 20
8.876079
 30
0.0
 10
29.125296
 20
9.832417
 30
0.0
 10
27.533378
 20
12.382653
 30
0.0
 10
25.623079
 20
12.382653
 30
0.0
 10
24.031160
 20
9.832417
 30
0.0
 10
24.031160
 20
8.876079
 30
0.0
 10
23.623629
 20
8.079130
 30
0.0
 10
24.031160
 20
7.282181
 30
0.0
 10
25.559402
 20
7.282181
 30
0.0
 10
25.151871
 20
8.079130
 30
0.0
 10
25.559402
 20
8.876079
 30
0.0
 10
27.597055
 20
8.876079
 30
0.0
 10
28.004585
 20
8.079130
 30
0.0
  0
LWPOLYLINE
  5
10c
100
AcDbEntity
  8
0
 62
7
100
AcDbPolyline
 90
16
 70
1
 10
4.279806
 20
0.235385
 30
0.0
 10
5.850224
 20
0.235385
 30
0.0
 10
6.269003
 20
1.055776
 30
0.0
 10
5.850224
 20
1.876169
 30
0.0
 10
5.850224
 20
2.860639
 30
0.0
 10
4.214373
 20
5.485894
 30
0.0
 10
2.251358
 20
5.485894
 30
0.0
 10
0.615509
 20
2.860639
 30
0.0
 10
0.615509
 20
1.876169
 30
0.0
 10
0.196730
 20
1.055776
 30
0.0
 10
0.615509
 20
0.235385
 30
0.0
 10
2.185918
 20
0.235385
 30
0.0
 10
1.767138
 20
1.055776
 30
0.0
 10
2.185918
 20
1.876169
 30
0.0
 10
4.279806
 20
1.876169
 30
0.0
 10
4.698584
 20
1.055776
 30
0.0
  0
LWPOLYLINE
  5
10d
100
AcDbEntity
  8
0
 62
7
100
AcDbPolyline
 90
16
 70
1
 10
10.038002
 20
0.235385
 30
0.0
 10
8.467585
 20
0.235385
 30
0.0
 10
8.048808
 20
1.055776
 30
0.0
 10
8.467585
 20
1.876169
 30
0.0
 10
8.467585
 20
2.860639
 30
0.0
 10
10.103435
 20
5.485894
 30
0.0
 10
12.066455
 20
5.485894
 30
0.0
 10
13.702304
 20
2.860639
 30
0.0
 10
13.702304
 20
1.876169
 30
0.0
 10
14.121083
 20
1.055776
 30
0.0
 10
13.702304
 20
0.235385
 30
0.0
 10
12.131889
 20
0.235385
 30
0.0
 10
12.550668
 20
1.055776
 30
0.0
 10
12.131889
 20
1.876169
 30
0.0
 10
10.038002
 20
1.876169
 30
0.0
 10
9.619223
 20
1.055776
 30
0.0
  0
LWPOLYLINE
  5
10e
100
AcDbEntity
  8
0
 62
7
100
AcDbPolyline
 90
16
 70
1
 10
17.890080
 20
0.235385
 30
0.0
 10
16.319665
 20
0.235385
 30
0.0
 10
15.900885
 20
1.055776
 30
0.0
 10
16.319665
 20
1.876169
 30
0.0
 10
16.319665
 20
2.860639
 30
0.0
 10
17.955513
 20
5.485894
 30
0.0
 10
19.918534
 20
5.485894
 30
0.0
 10
21.554383
 20
2.860639
 30
0.0
 10
21.554383
 20
1.876169
 30
0.0
 10
21.973161
 20
1.055776
 30
0.0
 10
21.554383
 20
0.235385
 30
0.0
 10
19.983968
 20
0.235385
 30
0.0
 10
20.402745
 20
1.055776
 30
0.0
 10
19.983968
 20
1.876169
 30
0.0
 10
17.890079
 20
1.876169
 30
0.0
 10
17.471303
 20
1.055776
 30
0.0
  0
LWPOLYLINE
  5
10f
100
AcDbEntity
  8
0
 62
7
100
AcDbPolyline
 90
16
 70
1
 10
27.836043
 20
0.235385
 30
0.0
 10
29.406459
 20
0.235385
 30
0.0
 10
29.825240
 20
1.055776
 30
0.0
 10
29.406459
 20
1.876169
 30
0.0
 10
29.406459
 20
2.860639
 30
0.0
 10
27.770609
 20
5.485894
 30
0.0
 10
25.807592
 20
5.485894
 30
0.0
 10
24.171741
 20
2.860639
 30
0.0
 10
24.171741
 20
1.876169
 30
0.0
 10
23.752965
 20
1.055776
 30
0.0
 10
24.171741
 20
0.235385
 30
0.0
 10
25.742157
 20
0.235385
 30
0.0
 10
25.323381
 20
1.055776
 30
0.0
 10
25.742157
 20
1.876169
 30
0.0
 10
27.836043
 20
1.876169
 30
0.0
 10
28.254821
 20
1.055776
 30
0.0
  0
ENDSEC
  0
SECTION
  2
OBJECTS
  0
DICTIONARY
  5
C
330
0
100
AcDbDictionary
  3
ACAD_GROUP
350
D
  3
ACAD_MLINESTYLE
350
17
  0
DICTIONARY
  5
D
330
C
100
AcDbDictionary
  0
DICTIONARY
  5
1A
330
C
100
AcDbDictionary
  0
DICTIONARY
  5
17
330
C
100
AcDbDictionary
  3
STANDARD
350
18
  0
DICTIONARY
  5
19
330
C
100
AcDbDictionary
  0
ENDSEC
  0
EOF
